<svg width="22" height="22" viewBox="0 0 22 22" fill="none" xmlns="http://www.w3.org/2000/svg">
<g clip-path="url(#clip0_41_4967)">
<g clip-path="url(#clip1_41_4967)">
<g clip-path="url(#clip2_41_4967)">
<mask id="mask0_41_4967" style="mask-type:luminance" maskUnits="userSpaceOnUse" x="0" y="0" width="22" height="22">
<path d="M22 0H0V22H22V0Z" fill="white"/>
</mask>
<g mask="url(#mask0_41_4967)">
<path d="M15.828 12.4975H2.70585L3.79596 9.54044C3.88877 9.28564 4.13112 9.11592 4.40268 9.11592H8.77C9.43468 9.94933 10.3047 10.6115 11.2858 11.025C12.5675 11.5721 14.0475 11.6772 15.3953 11.3236L15.828 12.4975ZM0.990935 21.3546C0.990935 21.7104 1.27968 21.9992 1.63641 21.9992H3.96698C4.32327 21.9992 4.61245 21.7104 4.61245 21.3546V20.5434H0.990935V21.3546ZM13.9217 21.3546C13.9217 21.7104 14.2105 21.9992 14.5672 21.9992H16.8978C17.2541 21.9992 17.5433 21.7104 17.5433 21.3546V20.5434H13.9218L13.9217 21.3546ZM18.5312 18.6416L18.3808 16.9718H16.1872C15.831 16.9718 15.5418 16.6831 15.5418 16.3273C15.5418 15.9715 15.831 15.6828 16.1872 15.6828H18.211C17.9012 14.594 16.9894 13.7617 15.8753 13.7866H2.65859C1.55301 13.7617 0.644652 14.5828 0.329264 15.6613H2.3896C2.74624 15.6613 3.03542 15.9501 3.03542 16.3058C3.03542 16.6616 2.74624 16.9504 2.3896 16.9504H0.155241L0.00270293 18.6416C-0.0303828 18.9613 0.245045 19.2616 0.567309 19.2543H17.9665C18.2888 19.2616 18.5642 18.9613 18.5312 18.6416ZM11.8513 16.9504H6.68302C6.32681 16.9504 6.03763 16.6616 6.03763 16.3058C6.03763 15.9501 6.32681 15.6613 6.68302 15.6613H11.8513C12.2075 15.6613 12.4967 15.9501 12.4967 16.3058C12.4967 16.6616 12.2075 16.9504 11.8513 16.9504ZM21.8115 12.2342L17.8295 8.25298C18.5002 7.38725 18.8996 6.30079 18.8996 5.12092C18.8996 2.29381 16.6077 0.00195312 13.7806 0.00195312C10.9535 0.00195312 8.66163 2.29376 8.66163 5.12088C8.66163 7.94799 10.9535 10.2398 13.7806 10.2398C14.9631 10.2398 16.0519 9.83864 16.9186 9.16524L20.8997 13.146C21.1515 13.3977 21.5596 13.3972 21.8115 13.146C22.0628 12.8942 22.0628 12.486 21.8115 12.2342Z" fill="#CBD3E1"/>
</g>
</g>
</g>
</g>
<defs>
<clipPath id="clip0_41_4967">
<rect width="22" height="22" fill="white"/>
</clipPath>
<clipPath id="clip1_41_4967">
<rect width="22" height="22" fill="white"/>
</clipPath>
<clipPath id="clip2_41_4967">
<rect width="22" height="22" fill="white"/>
</clipPath>
</defs>
</svg>
