<svg width="22" height="18" viewBox="0 0 22 18" fill="none" xmlns="http://www.w3.org/2000/svg">
<g clip-path="url(#clip0_41_4958)">
<path d="M4.48774 3.302H1.23174C0.557402 3.302 0.0107422 3.84866 0.0107422 4.523C0.0107422 5.19734 0.557402 5.744 1.23174 5.744H4.48774C5.16208 5.744 5.70874 5.19734 5.70874 4.523C5.70874 3.84866 5.16208 3.302 4.48774 3.302Z" fill="#CDD5E2"/>
<path d="M5.30174 9H1.23174C0.557402 9 0.0107422 9.54666 0.0107422 10.221C0.0107422 10.8953 0.557402 11.442 1.23174 11.442H5.30174C5.97608 11.442 6.52274 10.8953 6.52274 10.221C6.52274 9.54666 5.97608 9 5.30174 9Z" fill="#CDD5E2"/>
<path d="M0.0107422 15.919C0.0107422 15.2447 0.557403 14.698 1.23174 14.698H10.9997C11.6741 14.698 12.2207 15.2447 12.2207 15.919C12.2207 16.5933 11.6741 17.14 10.9997 17.14H1.23174C0.557403 17.14 0.0107422 16.5933 0.0107422 15.919Z" fill="#CDD5E2"/>
<path d="M16.2559 11.3426L17.8195 9.77905L21.2073 13.1668C21.639 13.5985 21.639 14.2985 21.2073 14.7304C20.7754 15.1621 20.0754 15.1621 19.6436 14.7304L16.2559 11.3426Z" fill="#CDD5E2"/>
<path d="M13.3696 12.1124C16.252 12.1124 18.5887 9.77571 18.5887 6.89324C18.5887 4.01078 16.252 1.67407 13.3696 1.67407C10.4871 1.67407 8.15039 4.01078 8.15039 6.89324C8.15039 9.77571 10.4871 12.1124 13.3696 12.1124Z" stroke="#CDD5E2" stroke-width="1.628"/>
</g>
<defs>
<clipPath id="clip0_41_4958">
<rect width="21.978" height="16.28" fill="white" transform="translate(0.0107422 0.860107)"/>
</clipPath>
</defs>
</svg>
